<svg xmlns="http://www.w3.org/2000/svg" height="24" width="24" viewBox="0 0 64 64"><title>64 pin star</title><g fill="#4455eb" class="nc-icon-wrapper"><path d="M26,62a1,1,0,0,0,.707-.293,129.686,129.686,0,0,0,9.42-10.752l-5.221-5.089a3,3,0,0,1,1.663-5.117l7.422-1.079,3.319-6.725A2.96,2.96,0,0,1,46,31.317a3.084,3.084,0,0,1,1.533.405A23.49,23.49,0,0,0,49,24.1C49,9.639,37.306,1,26,1S3,9.639,3,24.1C3,39.24,24.383,60.8,25.293,61.707A1,1,0,0,0,26,62ZM18,24a8,8,0,1,1,8,8A8,8,0,0,1,18,24Z" fill="#4455eb"></path> <path d="M46.9,33.83a1.041,1.041,0,0,0-1.794,0L41.319,41.5l-8.463,1.23a1,1,0,0,0-.554,1.7L38.425,50.4,36.98,58.831a1,1,0,0,0,1.451,1.054L46,55.906l7.57,3.979a1,1,0,0,0,1.451-1.054L53.575,50.4,59.7,44.433a1,1,0,0,0-.554-1.7L50.681,41.5Z" fill="#4455eb" data-color="color-2"></path></g></svg>