<svg xmlns="http://www.w3.org/2000/svg" height="24" width="24" viewBox="0 0 48 48"><title>48 world pin</title><g class="nc-icon-wrapper"><circle cx="24" cy="25" r="22" fill="#cbeafb"></circle><path d="M2,25A21.942,21.942,0,0,0,9.43,41.478l1.944-2.915s1.389-.4,1.688-.938C14,35.938,12.335,33,12.335,33A9.523,9.523,0,0,0,12,30.919c-.25-.625-2-1.481-2-1.481S8.312,26.688,8.312,25a2.517,2.517,0,0,1,2.375-2.624,4.1,4.1,0,0,0,2.688-1.938S15.5,19.875,16,19s-.562-3.994-.562-3.994a5.221,5.221,0,0,0-.021-2.506,4.739,4.739,0,0,0-1.574-1.895,10.4,10.4,0,0,0-2.449-3.631A21.97,21.97,0,0,0,2,25Z" fill="#78d478"></path><path d="M40.751,24.716c.5,1.188-.939,4.22-2.125,4.812a8.054,8.054,0,0,0-3.08,2.456c-.438.688-1.013,3.524-2.45,4.087s-4.845,3.77-6.657,3.27-1.813-4.813-.563-6.751c.746-1.157-.125-3.688-.188-4.562S23,25.528,23,24.653c0-1.375,3-5,3-5a10.673,10.673,0,0,1,3.208-.625,11.346,11.346,0,0,1,2.167,1.062,15.05,15.05,0,0,1,3.875.812l1.438,1.312S40.251,23.528,40.751,24.716Z" fill="#78d478"></path><path d="M32,1a9,9,0,0,0-9,9c0,5.369,6.815,12.3,8.584,14.006a.6.6,0,0,0,.832,0C34.185,22.3,41,15.369,41,10A9,9,0,0,0,32,1Z" fill="#ff7163"></path><circle cx="32" cy="10" r="3" fill="#fff"></circle></g></svg>